<?xml version="1.0" encoding="utf-8"?>
<!-- Generator: Adobe Illustrator 27.8.1, SVG Export Plug-In . SVG Version: 6.00 Build 0)  -->
<svg version="1.1" id="Capa_1" xmlns="http://www.w3.org/2000/svg" xmlns:xlink="http://www.w3.org/1999/xlink" x="0px" y="0px"
	 viewBox="0 0 1277 1640" style="enable-background:new 0 0 1277 1640;" xml:space="preserve">
<style type="text/css">
	.st0{fill:#4AB849;}
	.st1{fill:#FFFFFF;}
</style>
<path class="st0" d="M1020.5,138.7c3.8,3.3,10,10,12,10.8c0.4,0.2,0.7,0.4,0.9,0.6c31.5,29.9,57.7,63.9,78.6,102
	c2.7,5,5.4,9.9,7.8,14.8c0.2,0.4,0,0.8-0.3,1c-0.1,0.1-0.2,0.1-0.3,0.1c-126.3,0-252.7,0-379.2,0c-24.5,0-48.9,0.8-73.4,0.8
	c-0.3,0-0.5,0.1-0.7,0.4L415.3,693.3c-0.3,0.5-0.9,0.6-1.4,0.4c-0.1-0.1-0.2-0.2-0.3-0.3c-44.9-62.9-70.6-132.9-76.9-210
	c-0.5-6-0.7-12.6-0.7-20c0-16.6-0.3-33.6,1.4-49.9c17.4-170.9,133.2-311.3,298-359.6c42-12.3,85.8-17.5,131.4-15.6
	C860.8,42.4,949,77.4,1020.5,138.7z"/>
<path class="st0" d="M731.8,1145.2c-1.5,0-5-0.2-6.3-0.6c-0.5-0.1-0.6-0.4-0.3-0.8l219.5-395c0.3-0.5,0.3-1.2,0-1.7l-249-425.8
	c-0.2-0.3-0.1-0.7,0.2-0.9c0.1,0,0.2-0.1,0.2-0.1c111.1-13.6,222.4,19.7,309.1,89.9c2.1,1.7,4.1,3.4,6.1,5.2
	c0.4,0.4,0.9,1.2,1.6,1.4c0.3,0.1,0.6,0.2,0.8,0.4c15.3,13.9,26.7,24.9,34.2,33.1c90,98.1,128.2,231.6,102.3,362.4
	C1111.1,1009.7,932.2,1152.8,731.8,1145.2z"/>
<path class="st0" d="M477.6,996.1c-239-18-414-230.3-382.4-469.1c7.8-58.7,28-113.8,60.5-165.2c0.5-0.9,1.7-2.3,3.4-4.4
	c0.2-0.3,0.5-0.3,0.6,0.1l229.4,389.5c0.4,0.7,1.2,1.1,2,1.1c122.3,0,244.8,0,367.6,0c0.2,0,0.4,0,0.6,0.2c0.1,0.1,0.3,0.1,0.4,0.1
	H883c1.3,0,1.7,0.6,1.2,1.8c-63.7,144.8-203,238.8-360.4,246.5c-0.8,0-1.7,0.5-2.4,0.5C506.7,997,492.5,997.2,477.6,996.1z"/>
<path class="st1" d="M785.5,1283.5l-0.5,0.3c-0.1,0.1-0.1,0.1,0,0.2c0.2,0.1,0.5,0.2,0.7,0.2c8.8,1.1,17.3,3,25.8,5.5
	c0.5,0.2,0.9,0.1,1.1-0.2c0.4,0.2,0.9,0.3,1.5,0.2c0.4,0,0.6,0.1,0.9,0.4c0.5,0.6,1.2,0.8,2,0.7c0.3-0.1,0.6,0,0.8,0.2
	c1.5,1.4,3.4,1.4,4.8,2c1.3,0.6,2.7,1.3,4,2c0.3,0.2,0.6,0.2,0.9,0.2c1.5,0.1,2.1,1.2,3.2,1.8c10.6,5.3,19.8,12.5,27.5,21.5
	c0.2,0.2,0.2,0.4,0.2,0.7c0,0.1,0,0.2,0,0.3c0,0.1,0,0.1,0.1,0.1c0.9,0.8,2.2,2.3,3.7,4.6c9.1,13.5,14,28,14.9,43.4
	c0,0.4-0.1,0.7-0.4,0.9c-0.8,0.6-1.8,0.9-3,0.9c-3.6-0.2-7-0.1-10.3,0.1c-4.5-0.4-9-0.3-13.5,0.4l-5.3,0.5c-4.7-0.4-9.3-0.3-14,0.4
	l-4.8,0.6c-4.8-0.5-9.7-0.3-14.5,0.4l-4.7,0.6c-4.3-0.4-8.5-0.3-12.8,0.4l-3.4,0.1c-0.4,0-0.6-0.1-0.8-0.4c-0.8-1.1-1.2-2.3-1.2-3.6
	c0-0.3-0.1-0.6-0.3-0.9l-3.6-6.2c-2.2-3.9-5.3-6.7-9.3-8.4c-3.7-1.9-7.6-3.4-11.6-4.4c-1.8-0.9-4-1.1-6.6-0.7
	c-0.4-0.2-0.9-0.2-1.4,0c-2.6-0.3-4.9,0-7.1,0.9c-5,1.1-9.9,3-14.8,5.7c-4.5,2.5-7.7,6.1-9.8,10.8c-6.8,22.8,40.5,28.6,53.6,30
	c0.3,0,0.5,0,0.6-0.1c0.2-0.1,0.4-0.3,0.5-0.5c0.2,0.2,0.4,0.3,0.6,0.4c4.3,1.3,8.7,1.9,13.4,1.9l1.6,0.4c1.4,0.9,2.7,1.1,4.1,0.4
	c0.2,0.4,0.5,0.5,1,0.4c1.4-0.3,2.7-0.1,3.9,0.6c0.3,0.2,0.6,0.2,0.9,0.2h2.2c0.3,0,0.6,0.1,0.9,0.3c0.8,0.7,1.7,0.9,2.8,0.6
	c0.4-0.1,0.8,0,1.1,0.3c0.8,0.7,1.8,1,2.9,0.7c0.3-0.1,0.6,0,0.9,0.2c1.2,1.1,2.5,0.4,4.1,1c3.5,1.5,7,2.3,10.7,4
	c11,4.9,24.1,11.8,34.1,22.8c29.4,32.6,30.1,79.9,1.7,113.3c-2.3,2.7-4.6,5.9-6.5,6.9c-0.5,0.3-1,0.6-1.3,0.9
	c-23.6,20.6-56.5,29.5-87.7,30.8c-3.2-0.7-6.4-0.5-9.6,0.6l-19.1,0c-2.8-1.2-5.7-1.3-8.8-0.3c-30-2-61.4-11.4-82.8-34
	c-3.1-3.3-7-8.1-9.5-12.2c-4.3-7.3-6.8-12.1-7.6-14.6c-0.7-2.2-1.3-3.7-1.8-4.7c-0.2-0.3-0.2-0.6-0.2-0.9c0.1-0.7-0.1-1.3-0.7-1.7
	c-0.3-0.2-0.4-0.5-0.4-0.9c0.2-0.9,0.1-1.7-0.2-2.3c-1.1-2.3-1.6-4.5-1.6-6.6c0-0.4-0.1-0.7-0.4-1l-0.4-0.4
	c-0.2-0.2-0.3-0.5-0.2-0.8c0.4-1.9,0.2-3.8-0.7-5.4c-0.1-0.2-0.2-0.5-0.2-0.8c0-4,0-8,0-12c0-0.5,0.3-0.8,0.9-0.9
	c5,0.4,10,0.3,14.9-0.5l7.6-0.5c4,0.5,8.1,0.4,12.1-0.4l10.6-0.5c5.1,0.3,10.1,0.1,15.1-0.7l6.8-0.4l14.3-0.1c1.3,3.3,2.3,7,3.8,9.9
	c13.3,25.6,60.2,35.3,80.6,12c0.8-0.9,1-2.3,2.2-3.2c0.3-0.2,0.4-0.4,0.5-0.7c0.8-2.2,1.9-4.6,2.2-6.7c1.6-8.1-2.2-17-9.3-21.4
	c-1.3-0.8-2.1-2-3.4-2.7c-10.6-5.5-21.6-9.5-32.9-11.9c-40.2-8.6-99.8-17.1-115.5-62.9c-0.1-0.3-0.1-0.9,0-1.7
	c0.1-1.7-0.3-2.8-1-3.4c0.3-3.2-0.9-5.9-1.1-8.6c-0.9-20.8,5.8-45.6,20.9-60.7l7.4-7.2c1.5-1.7,2.6-2.8,3.3-3.3
	c6.8-4.9,13.9-9.1,21.5-12.6c1.4-0.7,3-1,4.6-1.8c1.2-0.6,2.2-1,3.2-1.2c2.7-0.6,4.7-1.8,7.1-2.3c5.3-1.2,9.8-3.2,15.5-3.5l32.6-3.3
	C762,1281.5,773.7,1281.9,785.5,1283.5z"/>
<path class="st1" d="M237.8,1287.3l11.8,3.6c0.3,0.1,0.6,0.3,0.8,0.5c0.2,0.3,0.5,0.3,0.8,0.2c0.3-0.2,0.7-0.2,1,0.1
	c2,1.3,4.8,2,6.4,2.8c7.9,3.6,15.3,7.8,22.4,12.8c0.7,0.5,1.2,1.4,2.4,1.5c0.3,0,0.6,0.2,0.8,0.4c1.5,2.1,3.8,3.2,5.3,4.6
	c18.3,16.6,31,36.9,38,60.9c0.1,0.5-0.1,1-0.6,1.2c0,0,0,0-0.1,0l-79.5,17.2c-0.8-0.4-1.8-0.2-3.1,0.6c-0.8,0.2-1.6,0.2-2.3,0
	c-0.3-0.1-0.6-0.5-0.5-0.8l0.1-1.5c0-0.4-0.1-0.8-0.4-1.1c-0.6-0.5-0.8-1.2-0.6-2c0.1-0.4-0.1-0.7-0.4-0.9c-0.6-0.5-0.9-1.1-0.7-2
	c0.1-0.4,0-0.7-0.1-1l-5.3-10.8c-0.4-1.3-1.2-2.3-2.3-3.1c-0.5-0.5-0.6-0.7-0.3-0.6c-1.7-2.8-3.9-5-6.5-6.5
	c-27.2-22.5-66.7-13-80.2,20c-2.6,6.1-3.8,12.8-3.7,19.9c0.3,16.5-0.1,33.1-0.1,49.6c0,7,0.2,12.6,0.6,16.8c0.5,5.2,2.1,9.9,5,14.4
	c2.8,5.8,6.6,10.9,11.3,15.4c1.4,1.3,3.4,2,4.8,3.9c0.2,0.3,0.5,0.4,0.8,0.4c1.1,0.1,1.6,0.9,2.3,1.3c4.4,2.7,9.2,4.7,14.2,5.9
	c1.2,0.3,3.5,0.1,5.2,1.1c0.3,0.2,0.6,0.2,0.9,0.2c3.7,0,7.4,0,11.1,0c1,0,1.4-0.7,2.2-0.8c20.6-3.1,35.4-17.2,41.1-36.6
	c1.4-4.8,2.1-11.8,1.8-16.8c0-0.4,0.1-0.5,0.5-0.4l38.3,9.3c0.3,0.1,0.6,0.2,0.9,0.4c0.8,0.5,1.7,0.6,2.6,0.4c0.4-0.1,0.7,0,1,0.3
	c0.8,0.8,1.7,1,2.8,0.7c0.3-0.1,0.6,0,0.9,0.2l1.1,0.8c0.3,0.2,0.6,0.2,0.9,0.1c0.8-0.4,1.5-0.3,2.2,0.4c0.3,0.3,0.7,0.4,1,0.4h2.7
	c0.3,0,0.6,0.1,0.8,0.3c0.7,0.7,1.6,0.9,2.8,0.6c0.4-0.1,0.8,0,1.1,0.3c0.7,0.8,1.7,1,2.9,0.7c0.3-0.1,0.6,0,0.8,0.2
	c0.7,0.7,1.5,1,2.5,0.7c0.3-0.1,0.6,0,0.9,0.1l1.4,0.7c0.2,0.1,0.4,0.1,0.6,0.1c1-0.2,1.9,0.1,2.7,0.7c0.3,0.2,0.6,0.3,0.9,0.3h1.5
	c0.4,0,0.7,0.1,1,0.3c0.8,0.6,1.7,0.8,2.7,0.6c0.3-0.1,0.6,0,0.9,0.2c2.1,1.5,6.4,1,9.3,2.6c0.3,0.2,0.4,0.4,0.3,0.8
	c-8.2,34.2-26.3,63.5-57,81.8c-44.9,26.8-118.5,26.9-162.9-1.1c-9.5-6-18.2-13.1-25.9-21.3c-1.6-1.7-2.8-4.3-5.1-6.1
	c-0.3-0.2-0.4-0.5-0.5-0.8c-0.6-1.9-2-2.6-2.9-4.1c-2.6-4.5-5.7-8.3-7.9-13c-1.1-2.3-3.3-4.8-4.2-7.7c-0.6-2-1.7-3.6-2.3-5.5
	c-0.1-0.3-0.3-0.5-0.5-0.6c-0.4-0.2-0.4-0.6-0.2-1.1c0.1-0.3,0.1-0.6,0-0.8c-0.6-1.1-1.1-2-1.3-2.6c-5.3-13.9-8.7-28.3-10-43.2
	c-0.2-1.8,0.4-4.2-0.8-6.4c-0.2-0.3-0.2-0.6-0.2-0.9c-0.1-9.4-0.1-18.7,0-28.1c0-0.8,0.3-2.2,0.8-4.2c0.5-1.8,0.1-4.5,0.3-6.2
	c2.8-25,10.9-48,24.5-69c0.8-1.3,2.3-2.8,3.4-4.6c0.7-1.3,2.7-3.7,5.9-7.2l15.8-14.9c0.1-0.1,0.1-0.1,0-0.2c0-0.1-0.1-0.1-0.2-0.2
	c20.2-15.7,43.2-25.2,69-28.2c0.7,0.4,1.5,0.5,2.5,0.3c8.7-1.2,17.5-1.6,26.2-1.3c13.7,0.5,26.7,1.8,39.8,5.3
	C237.1,1288,237.7,1287.8,237.8,1287.3z"/>
<path class="st1" d="M598.2,1357.5c-0.5-0.1-0.9,0-1.3,0.3c-0.2,0.2-0.5,0.2-0.8,0.2H447.3c-0.8,0-1.5,0.7-1.5,1.5l0,0l0,23.9
	c0,0.3,0.1,0.6,0.4,0.8c0.4,0.2,0.6,0.2,0.7,0l150.6,0c0.4,0,0.8,0.3,0.8,0.8l0,0v67c0,0.3-0.2,0.5-0.5,0.5l-151.1,0.1
	c-0.7-0.3-1.1,0.5-1.1,2.4c-0.2,15.8,0.1,31.7,0.8,47.7c1,0.1,1.4,0.2,1.5,0.1c50,0,99.9,0,149.9,0c0.3,0,0.5,0.2,0.5,0.5v70
	c0,0.3-0.2,0.5-0.5,0.5h-239c-0.6,0-1-0.4-1-1v-281.5c0-0.4,0.3-0.8,0.8-0.8h239.2c0.3,0,0.5,0.2,0.5,0.5l0,0V1357.5z"/>
<path class="st1" d="M1187.3,1530.8c0,2.4,0.7,4.4,2.1,6.1l9.4,28.1c0.1,0.3,0.2,0.5,0.4,0.6c0.3,0.2,0.3,0.5,0.2,0.9
	c-0.1,0.3-0.1,0.5,0,0.8l1.9,5.2c0.2,0.5-0.1,1-0.5,1.2c-0.1,0-0.2,0.1-0.3,0.1h-95.1c-0.4,0-0.7-0.2-0.7-0.6l-10.7-48.2
	c-0.1-0.3-0.2-0.4-0.5-0.4h-91.7c-0.6,0-1.1,0.4-1.3,0.9c-0.9,2.7-1.5,5.5-1.8,8.3c0,0.3-0.1,0.6-0.3,0.9c-0.5,0.8-0.7,1.8-0.5,2.8
	c0.1,0.3,0,0.6-0.2,0.8c-1.1,1.6-0.9,3.4-1.2,4.9c-2,8.4-3.8,16.8-5.5,25.2c-0.1,0.3-0.2,0.6-0.5,0.9c-0.3,0.3-0.5,0.7-0.4,1.2
	c0.3,1.4-0.2,3.3-1.8,3.3c-31.6,0-63.3,0-94.9,0c-0.3,0-0.5-0.2-0.4-0.5l44.2-132.5c0.1,0,0.2,0,0.2,0c0.1,0,0.1,0,0.1-0.1
	c2.2-5.1,3.9-10.5,5.1-16l44.3-132.5c0.4-1.2,1.2-1.7,2.4-1.7l115.8,0.1c1.1,0,1.8,0.5,2.1,1.5L1187.3,1530.8z M1012.9,1459.9
	l-0.3,0.3c-0.2,0.2-0.2,0.5,0,0.6c0.1,0.1,0.2,0.1,0.3,0.1h68.3c0.3,0,0.6-0.3,0.6-0.6c0,0,0,0,0,0c0-0.5-0.3-0.7-0.7-0.6
	c0.1-0.6,0-1-0.2-1.4c0-1.8-0.5-3.5-1.6-5l-2.1-5.9c-0.1-0.3-0.3-0.6-0.5-0.8c-0.4-0.4-0.4-0.9-0.1-1.4c0.2-0.3,0.1-0.7-0.2-1
	c-0.7-0.5-1-1.2-0.7-2c0.1-0.2,0-0.5-0.2-0.7c-0.7-0.8-1.3-2.1-1.9-3.9c-2.2-6.8-4.3-13.2-6.9-20.3c-2.7-7.2-4.9-14.7-7.7-21.9
	c-0.8-1.9-1.4-3.9-2.1-5.9c-2.9-9-6.4-17.9-9.2-26.9c-0.1-0.2-0.3-0.4-0.6-0.3c-0.1,0-0.3,0.1-0.3,0.3L1012.9,1459.9z"/>
</svg>
