<?xml version="1.0" encoding="UTF-8"?>
<svg id="Ebene_1" data-name="Ebene 1" xmlns="http://www.w3.org/2000/svg" viewBox="0 0 133.87 68.39">
  <defs>
    <style>
      .cls-1 {
        fill: #ec6608;
      }

      .cls-2 {
        fill: #1d1d1b;
      }
    </style>
  </defs>
  <path class="cls-1" d="m106.61,27.28c0-13.14-4.91-17.54-18.29-17.54-14.13,0-19.58,4.07-19.58,18.51s8.96,18.3,19.33,18.3,18.55-2.99,18.55-19.28m-18.64-6.99c3.56,0,5.99,1.86,5.99,7.1,0,3.09-.36,8.09-5.94,8.09-2.12,0-6.62,0-6.62-7.62,0-5.59,2.38-7.57,6.57-7.57"/>
  <g>
    <path class="cls-2" d="m1.54,68.02h4.22v-10.17h2.54v-2.74h-2.76v-.57c0-1.17.82-1.29,1.79-1.29.37,0,.58.05.98.1l.33-2.88c-.7-.12-1.54-.2-2.21-.2-3.6,0-4.9,1.14-4.9,4.85H0v2.74h1.54v10.17Z"/>
    <path class="cls-2" d="m22.66,68.02v-12.9h-4.23v6.91c0,2.29-1.39,2.88-2.31,2.88-1.34,0-2.09-.6-2.09-2.31v-7.48h-4.23v7.76c0,3.38,1.07,5.52,4.77,5.52,1.49,0,3.13-.82,3.93-2.14h.05v1.76h4.1Z"/>
    <rect class="cls-2" x="17.08" y="50.27" width="3.73" height="3.11"/>
    <rect class="cls-2" x="11.53" y="50.27" width="3.73" height="3.11"/>
    <path class="cls-2" d="m25.22,55.12v12.9h4.23v-6.39c0-1.62,1.49-2.95,2.88-2.95.57,0,1.05.06,1.31.12l.48-4.08c-.32-.08-.9-.03-1.23-.03-1.5,0-2.89,1.05-3.52,2.69h-.05v-2.26h-4.1Z"/>
    <path class="cls-2" d="m45.57,68.39c1.49,0,2.73-.65,3.55-1.86h.05v1.49h4.03v-17.75h-4.23v6.24h-.05c-.87-1.17-2.09-1.76-3.68-1.76-3.65,0-5.44,3.18-5.44,6.54,0,3.63,1.71,7.11,5.77,7.11Zm.95-10.41c1.84,0,2.51,1.71,2.51,3.58,0,1.64-.45,3.6-2.51,3.6-1.94,0-2.8-1.96-2.8-3.73,0-1.64.87-3.46,2.8-3.46Z"/>
    <polygon class="cls-2" points="59.98 55.12 55.76 55.12 55.76 60.93 55.76 68.02 59.98 68.02 59.98 55.12"/>
    <polygon class="cls-2" points="59.98 50.27 55.76 50.27 55.76 51.81 55.76 53.5 59.98 53.5 59.98 50.27"/>
    <path class="cls-2" d="m61.87,61.53c0,4.32,2.86,6.86,7.06,6.86,2.88,0,5.64-1.29,6.41-4.27h-3.95c-.4.94-1.39,1.42-2.41,1.42-1.79,0-2.81-1.17-2.88-2.93h9.47c.2-4.38-2.11-7.85-6.73-7.85-3.8,0-6.96,2.83-6.96,6.79Zm6.96-3.93c1.42,0,2.44,1.19,2.51,2.63h-5.24c.25-1.57,1.24-2.63,2.74-2.63Z"/>
    <polygon class="cls-2" points="89.96 68.02 92.4 55.79 92.45 55.79 94.89 68.02 99.51 68.02 104.41 50.27 99.79 50.27 97.27 63.25 97.22 63.25 94.61 50.27 90.26 50.27 87.65 63.25 87.61 63.25 85.09 50.27 80.47 50.27 85.27 68.02 89.96 68.02"/>
    <path class="cls-2" d="m110.65,68.39c2.88,0,5.64-1.29,6.41-4.27h-3.95c-.4.94-1.39,1.42-2.41,1.42-1.79,0-2.81-1.17-2.88-2.93h9.47c.2-4.38-2.11-7.85-6.74-7.85-3.8,0-6.96,2.83-6.96,6.79,0,4.32,2.86,6.86,7.06,6.86Zm-.1-10.79c1.42,0,2.43,1.19,2.51,2.63h-5.24c.25-1.57,1.24-2.63,2.73-2.63Z"/>
    <polygon class="cls-2" points="119.27 68.02 123.5 68.02 123.5 50.27 119.27 50.27 119.27 59.43 119.27 68.02"/>
    <path class="cls-2" d="m133.87,57.85v-2.74h-2.61v-3.9h-2.42s-.7,3.18-3.95,3.9v2.74h2.14v5.74c0,3.51.92,4.55,4.52,4.55.77,0,1.54-.1,2.31-.12v-3.11c-.37,0-.74.05-1.09.05-.92,0-1.52-.22-1.52-1.25v-5.87h2.61Z"/>
    <path class="cls-2" d="m40.99,31.67c0-6.69-2.88-10.44-7.45-11.34,4.11-1.17,5.61-4.33,5.61-8.92,0-6.31-2.02-11.41-13-11.41H1.3v45.49h27.27c8.03,0,12.43-4.71,12.43-13.83ZM15.31,9.96h6.6c2.87,0,3.99.93,3.99,3.52,0,3.3-1.85,4.24-4.78,4.24h-5.81v-7.75Zm7.53,25.36h-7.53v-9.13h7.21c3.31,0,4.91,1.58,4.91,4.46,0,3.77-1.65,4.67-4.59,4.67Z"/>
    <path class="cls-2" d="m57.12,35.66c0-9.37,1.65-10.87,8.66-10.87l1.56-13.19c-3.8-.5-9.43.17-11.73,6.28l-.08-5.29h-11.03v33.07h12.62v-10Z"/>
    <path class="cls-2" d="m113.33,32.21c0,12.24,6.42,13.99,11.77,13.99,2.67,0,6.74-.16,8.77-.33v-9.74h-3.55c-3.18-.01-3.88-1.57-3.88-6.62v-7.08h7.43v-10.01h-7.43V2.36h-8.95c-.48,4.76-2.17,10.07-8.87,10.07v10.01h4.7v9.77Z"/>
  </g>
</svg>